<?xml version="1.0" encoding="UTF-8" standalone="no"?>
<!-- Created with Inkscape (http://www.inkscape.org/) -->

<svg
   width="541.86664mm"
   height="270.93332mm"
   viewBox="0 0 541.86664 270.93332"
   version="1.1"
   id="svg1"
   xml:space="preserve"
   inkscape:version="1.4.2 (ebf0e940d0, 2025-05-08)"
   sodipodi:docname="gambar.svg"
   xmlns:inkscape="http://www.inkscape.org/namespaces/inkscape"
   xmlns:sodipodi="http://sodipodi.sourceforge.net/DTD/sodipodi-0.dtd"
   xmlns="http://www.w3.org/2000/svg"
   xmlns:svg="http://www.w3.org/2000/svg"><sodipodi:namedview
     id="namedview1"
     pagecolor="#505050"
     bordercolor="#eeeeee"
     borderopacity="1"
     inkscape:showpageshadow="0"
     inkscape:pageopacity="0"
     inkscape:pagecheckerboard="0"
     inkscape:deskcolor="#505050"
     inkscape:document-units="mm"
     inkscape:zoom="0.53354916"
     inkscape:cx="3025.0258"
     inkscape:cy="608.19138"
     inkscape:current-layer="layer1"><inkscape:page
       x="0"
       y="0"
       width="541.86664"
       height="270.93332"
       id="page1"
       margin="0"
       bleed="0"
       inkscape:label="gambar1"
       inkscape:export-filename="gambar1.png"
       inkscape:export-xdpi="96"
       inkscape:export-ydpi="96" /><inkscape:page
       x="551.86664"
       y="0"
       width="541.86664"
       height="270.93332"
       id="page2"
       margin="0"
       bleed="0"
       inkscape:label="gambar2"
       inkscape:export-filename="gambar2.png"
       inkscape:export-xdpi="96"
       inkscape:export-ydpi="96" /><inkscape:page
       x="1103.7333"
       y="0"
       width="541.86664"
       height="270.93332"
       id="page12"
       margin="0"
       bleed="0" /></sodipodi:namedview><defs
     id="defs1"><marker
       style="overflow:visible"
       id="DartArrow"
       refX="0"
       refY="0"
       orient="auto-start-reverse"
       inkscape:stockid="Dart arrow"
       markerWidth="1"
       markerHeight="1"
       viewBox="0 0 1 1"
       inkscape:isstock="true"
       inkscape:collect="always"
       preserveAspectRatio="xMidYMid"><path
         style="fill:context-stroke;fill-rule:evenodd;stroke:none"
         d="M 0,0 5,-5 -12.5,0 5,5 Z"
         transform="scale(-0.5)"
         id="path6" /></marker></defs><g
     inkscape:label="Layer 1"
     inkscape:groupmode="layer"
     id="layer1"
     transform="translate(125.11093,14.762792)"><rect
       style="fill:#000000;stroke-width:0.974;paint-order:markers stroke fill"
       id="rect4"
       width="541.86664"
       height="270.93329"
       x="-125.11093"
       y="-14.762792" /><rect
       style="fill:#000000;stroke-width:0.974;paint-order:markers stroke fill"
       id="rect2"
       width="541.86664"
       height="270.93329"
       x="426.75571"
       y="-14.762792" /><path
       id="rect3"
       style="fill:none;stroke:#ffffff;stroke-width:2;paint-order:markers stroke fill;stroke-dasharray:none"
       d="M -90.499875,35.83466 H 382.14468 m 0,169.73839 H -90.499875"
       sodipodi:nodetypes="cccc" /><path
       id="path4"
       style="fill:none;stroke:#ffffff;stroke-width:2;stroke-dasharray:none;paint-order:markers stroke fill"
       d="m 461.36674,35.83466 h 472.64455 m 0,169.73839 H 461.36674"
       sodipodi:nodetypes="cccc" /><g
       id="g5"
       transform="translate(14.700855,-10.583333)"><text
         xml:space="preserve"
         style="font-size:198.968px;line-height:1;font-family:'H34 Tulis';-inkscape-font-specification:'H34 Tulis';text-align:center;text-decoration-color:#000000;letter-spacing:0px;word-spacing:0px;writing-mode:lr-tb;direction:rtl;text-anchor:middle;fill:#ffffff;stroke:none;stroke-width:31.3337;stroke-dasharray:none;paint-order:markers stroke fill"
         x="310.51254"
         y="162.23433"
         id="text4"><tspan
           sodipodi:role="line"
           id="tspan4"
           style="fill:#ffffff;stroke:none;stroke-width:31.3337"
           x="310.51254"
           y="162.23433">ء</tspan></text><text
         xml:space="preserve"
         style="font-size:198.968px;line-height:1;font-family:'H34 Tulis';-inkscape-font-specification:'H34 Tulis';text-align:center;text-decoration-color:#000000;letter-spacing:0px;word-spacing:0px;writing-mode:lr-tb;direction:rtl;text-anchor:middle;fill:#ffffff;stroke:none;stroke-width:31.3337;stroke-dasharray:none;paint-order:markers stroke fill"
         x="87.063736"
         y="162.23433"
         id="text5"><tspan
           sodipodi:role="line"
           id="tspan5"
           style="fill:#ffffff;stroke:none;stroke-width:31.3337"
           x="87.063736"
           y="162.23433">توليس</tspan></text></g><text
       xml:space="preserve"
       style="font-style:normal;font-variant:normal;font-weight:normal;font-stretch:normal;font-size:12.7px;line-height:1;font-family:'Open Sans';-inkscape-font-specification:'Open Sans';text-align:start;text-decoration-color:#000000;letter-spacing:0px;word-spacing:0px;writing-mode:lr-tb;direction:ltr;text-anchor:start;fill:#ffffff;stroke:none;stroke-width:2;stroke-dasharray:none;paint-order:markers stroke fill"
       x="-91.119995"
       y="29.542994"
       id="text6"><tspan
         sodipodi:role="line"
         id="tspan6"
         style="font-style:normal;font-variant:normal;font-weight:normal;font-stretch:normal;font-family:'Open Sans';-inkscape-font-specification:'Open Sans';text-align:start;direction:ltr;text-anchor:start;stroke-width:2"
         x="-91.119995"
         y="29.542994">H34 Tulis Regular (not ready for use)</tspan></text><text
       xml:space="preserve"
       style="font-style:normal;font-variant:normal;font-weight:normal;font-stretch:normal;font-size:12.7px;line-height:1;font-family:'Open Sans';-inkscape-font-specification:'Open Sans';text-align:start;text-decoration-color:#000000;letter-spacing:0px;word-spacing:0px;writing-mode:lr-tb;direction:ltr;text-anchor:start;fill:#ffffff;stroke:none;stroke-width:2;stroke-dasharray:none;paint-order:markers stroke fill"
       x="380.90445"
       y="29.542994"
       id="text7"><tspan
         sodipodi:role="line"
         id="tspan7"
         style="font-style:normal;font-variant:normal;font-weight:normal;font-stretch:normal;font-family:'Open Sans';-inkscape-font-specification:'Open Sans';text-align:end;direction:ltr;text-anchor:end;stroke-width:2"
         x="380.90445"
         y="29.542994"> v0.001</tspan></text><text
       xml:space="preserve"
       style="font-style:normal;font-variant:normal;font-weight:normal;font-stretch:normal;font-size:12.7px;line-height:1;font-family:'Open Sans';-inkscape-font-specification:'Open Sans';text-align:start;text-decoration-color:#000000;letter-spacing:0px;word-spacing:0px;writing-mode:lr-tb;direction:ltr;text-anchor:start;fill:#ffffff;stroke:none;stroke-width:2;stroke-dasharray:none;paint-order:markers stroke fill"
       x="380.90445"
       y="221.07346"
       id="text8"><tspan
         sodipodi:role="line"
         id="tspan8"
         style="font-style:normal;font-variant:normal;font-weight:normal;font-stretch:normal;font-family:'Open Sans';-inkscape-font-specification:'Open Sans';text-align:end;direction:ltr;text-anchor:end;stroke-width:2"
         x="380.90445"
         y="221.07346">OFL 1.1</tspan></text><text
       xml:space="preserve"
       style="font-style:normal;font-variant:normal;font-weight:normal;font-stretch:normal;font-size:12.7px;line-height:1;font-family:'Open Sans';-inkscape-font-specification:'Open Sans';text-align:start;text-decoration-color:#000000;letter-spacing:0px;word-spacing:0px;writing-mode:lr-tb;direction:ltr;text-anchor:start;fill:#ffffff;stroke:none;stroke-width:2;stroke-dasharray:none;paint-order:markers stroke fill"
       x="-91.119995"
       y="221.51375"
       id="text9"><tspan
         sodipodi:role="line"
         id="tspan9"
         style="font-style:normal;font-variant:normal;font-weight:normal;font-stretch:normal;font-family:'Open Sans';-inkscape-font-specification:'Open Sans';text-align:start;direction:ltr;text-anchor:start;stroke-width:2"
         x="-91.119995"
         y="221.51375">https://github.com/H34Type/Tulis</tspan></text><g
       id="g2"
       transform="translate(648.38985,-20.997088)"><path
         style="font-size:150px;line-height:1;font-family:'H34 Tulis';-inkscape-font-specification:'H34 Tulis';text-align:center;letter-spacing:0px;word-spacing:0px;direction:rtl;text-anchor:middle;fill:#00ff00;stroke-width:31.3337;paint-order:markers stroke fill"
         d="m 253.39488,141.7314 -1.3916,-0.80566 c -4.46777,-2.63672 -7.03125,-4.17481 -7.69043,-4.54102 -2.49023,4.02832 -4.1748,6.73828 -5.05371,8.05664 l 9.08203,5.63965 c 0.87891,-1.46484 2.19727,-3.58887 3.95508,-6.51856 l 1.53809,0.87891 9.08203,5.63965 c 1.09863,-1.75781 2.7832,-4.54102 5.05371,-8.34961 -5.27344,-3.14941 -8.34961,-4.90723 -9.08203,-5.34668 -1.68457,2.70996 -3.00293,4.76074 -3.88184,6.22559 z"
         id="path22" /><path
         style="font-size:150px;line-height:1;font-family:'H34 Tulis';-inkscape-font-specification:'H34 Tulis';text-align:center;letter-spacing:0px;word-spacing:0px;direction:rtl;text-anchor:middle;fill:#ffffff;stroke-width:31.3337;paint-order:markers stroke fill"
         d="m 262.47691,188.89937 c 2.49024,0 19.62891,-5.49317 23.14453,-7.32422 V 180.623 c -19.77539,0 -61.88964,0.58594 -61.88964,-30.17578 0,-8.05664 14.35547,-34.79004 51.0498,-36.91406 1.3916,-2.92969 2.70996,-5.71289 4.98047,-10.40039 -8.71582,0 -17.43164,0.29297 -26.07422,-0.65918 -8.93555,-1.02539 -14.72168,-2.92969 -23.73047,-2.92969 -5.63965,0 -9.81445,6.29883 -11.86523,10.7666 v 2.56348 c 5.20019,-3.36914 22.77832,-1.9043 28.41797,0.8789 -8.4961,5.78614 -16.11328,12.23145 -21.167,22.0459 -4.1748,8.12989 -6.73828,16.11328 -6.66503,25.3418 0,8.64258 4.1748,15.82031 10.10742,20.28809 11.05957,8.27636 22.48535,7.39746 33.6914,7.4707 z"
         id="text2" /><text
         xml:space="preserve"
         style="font-size:198.968px;line-height:1;font-family:'H34 Tulis';-inkscape-font-specification:'H34 Tulis';text-align:center;text-decoration-color:#000000;letter-spacing:0px;word-spacing:0px;writing-mode:lr-tb;direction:rtl;text-anchor:middle;fill:#ffffff;stroke:none;stroke-width:31.3337;stroke-dasharray:none;paint-order:markers stroke fill"
         x="249.87926"
         y="-69.26442"
         id="text17"><tspan
           sodipodi:role="line"
           id="tspan17"
           style="font-size:150px;fill:#ffffff;stroke:none;stroke-width:31.3337"
           x="249.87926"
           y="-69.26442">چ</tspan></text><path
         style="font-size:150px;line-height:1;font-family:'H34 Tulis';-inkscape-font-specification:'H34 Tulis';text-align:center;letter-spacing:0px;word-spacing:0px;direction:rtl;text-anchor:middle;fill:#00ff00;stroke-width:31.3337;paint-order:markers stroke fill"
         d="m 258.66832,165.24214 c 1.09863,-1.75781 2.7832,-4.54101 5.05371,-8.34961 -5.34668,-3.14941 -8.34961,-4.90722 -9.08203,-5.34668 -2.49023,4.02832 -4.17481,6.73828 -5.05371,8.05664 z"
         id="path23" /><path
         style="font-size:150px;line-height:1;font-family:'H34 Tulis';-inkscape-font-specification:'H34 Tulis';text-align:center;letter-spacing:0px;word-spacing:0px;direction:rtl;text-anchor:middle;fill:#00ff00;stroke-width:31.3337;paint-order:markers stroke fill"
         d="m -40.462569,159.69305 -1.3916,-0.80566 c -4.46777,-2.63672 -7.03125,-4.17481 -7.69043,-4.54102 -2.49023,4.02832 -4.1748,6.73828 -5.05371,8.05664 l 9.08203,5.63965 c 0.87891,-1.46484 2.19727,-3.58887 3.95508,-6.51856 l 1.53809,0.87891 9.08203,5.63965 c 1.09863,-1.75781 2.7832,-4.54102 5.05371,-8.34961 -5.27344,-3.14941 -8.34961,-4.90723 -9.08203,-5.34668 -1.68457,2.70996 -3.00293,4.76074 -3.88184,6.22559 z"
         id="path42" /><path
         style="font-size:150px;line-height:1;font-family:'H34 Tulis';-inkscape-font-specification:'H34 Tulis';text-align:center;letter-spacing:0px;word-spacing:0px;direction:rtl;text-anchor:middle;fill:#00ff00;stroke-width:31.3337;paint-order:markers stroke fill"
         d="m -35.189129,183.20379 c 1.09863,-1.75781 2.7832,-4.54101 5.05371,-8.34961 -5.34668,-3.14941 -8.34961,-4.90722 -9.08203,-5.34668 -2.49023,4.02832 -4.17481,6.73828 -5.05371,8.05664 z"
         id="path43" /></g><path
       id="path20"
       style="font-size:150px;line-height:1;font-family:'H34 Tulis';-inkscape-font-specification:'H34 Tulis';text-align:center;letter-spacing:0px;word-spacing:0px;direction:rtl;text-anchor:middle;fill:#00ff00;stroke-width:31.3337;paint-order:markers stroke fill"
       d="m 804.91209,115.1679 c -1.02539,1.68457 -2.70996,4.46778 -5.05371,8.34961 4.10157,2.34375 6.81153,3.95508 8.20313,4.76074 -1.02539,1.75782 -2.70996,4.46778 -4.90723,8.12989 5.34668,3.14941 8.42285,4.90722 9.15527,5.34668 1.61133,-2.70996 2.92969,-4.76074 3.88184,-6.22559 l 1.61133,0.87891 1.31836,0.80566 c 4.54101,2.63672 7.10449,4.17481 7.76367,4.54102 2.49023,-4.02832 4.1748,-6.73828 5.05371,-8.05664 l -8.20312,-5.05371 c 2.41699,-3.95508 4.10156,-6.51856 4.90722,-7.83692 l -9.08203,-5.63965 c -0.87891,1.3916 -2.19726,3.58887 -3.95508,6.51856 l -1.53808,-0.87891 z m 9.59473,8.34961 1.31836,0.80567 h 0.0732 c 3.2959,1.90429 5.56641,3.22265 6.81153,3.95507 -0.87891,1.46485 -2.19727,3.51563 -3.88184,6.29883 l -1.46484,-0.8789 -8.20313,-5.05371 c 1.61133,-2.56348 2.85645,-4.61426 3.73535,-6.07911 z" /><path
       style="font-size:150px;line-height:1;font-family:'H34 Tulis';-inkscape-font-specification:'H34 Tulis';text-align:center;letter-spacing:0px;word-spacing:0px;direction:rtl;text-anchor:middle;fill:#ffffff;stroke-width:31.3337;paint-order:markers stroke fill"
       d="m 822.12401,167.90228 c 2.49023,0 19.6289,-5.49317 23.14453,-7.32422 v -0.95215 c -19.77539,0 -61.88965,0.58594 -61.88965,-30.17578 0,-8.05664 14.35547,-34.790038 51.04981,-36.914058 1.3916,-2.92969 2.70996,-5.71289 4.98046,-10.40039 -8.71582,0 -17.43164,0.29297 -26.07421,-0.65918 -8.93555,-1.02539 -14.72168,-2.92969 -23.73047,-2.92969 -5.63965,0 -9.81446,6.29883 -11.86524,10.7666 v 2.56348 c 5.2002,-3.36914 22.77832,-1.9043 28.41797,0.8789 -8.49609,5.78614 -16.11328,12.231448 -21.16699,22.045898 -4.17481,8.12989 -6.73828,16.11328 -6.66504,25.3418 0,8.64258 4.1748,15.82031 10.10742,20.28809 11.05957,8.27636 22.48535,7.39746 33.69141,7.4707 z"
       id="text3" /><text
       xml:space="preserve"
       style="font-size:150px;line-height:1;font-family:'H34 Tulis';-inkscape-font-specification:'H34 Tulis';text-align:center;text-decoration-color:#000000;letter-spacing:0px;word-spacing:0px;writing-mode:lr-tb;direction:rtl;text-anchor:middle;fill:#ffffff;stroke:none;stroke-width:31.3337;stroke-dasharray:none;paint-order:markers stroke fill"
       x="493.15384"
       y="115.53412"
       id="text15"><tspan
         sodipodi:role="line"
         id="tspan15"
         style="font-size:150px;fill:#ffffff;stroke:none;stroke-width:31.3337"
         x="493.15384"
         y="115.53412">ح</tspan></text><path
       style="fill:none;stroke:#ffffff;stroke-width:2;marker-end:url(#DartArrow);paint-order:markers stroke fill"
       d="m 645.59426,115.53411 h 98.4348"
       id="path15"
       sodipodi:nodetypes="cc" /><g
       id="g23"
       transform="translate(344.45952,-23.642919)"><path
         style="fill:none;stroke:#00ff00;stroke-width:0.8;stroke-dasharray:none;paint-order:markers stroke fill"
         d="m 149.88421,146.93235 h 3.4451"
         id="path16"
         sodipodi:nodetypes="cc" /><path
         style="fill:none;stroke:#00ff00;stroke-width:0.8;stroke-dasharray:none;paint-order:markers stroke fill"
         d="m 151.60676,145.2098 v 3.4451"
         id="path17"
         sodipodi:nodetypes="cc" /></g><text
       xml:space="preserve"
       style="font-size:150px;line-height:1;font-family:'H34 Tulis';-inkscape-font-specification:'H34 Tulis';text-align:center;text-decoration-color:#000000;letter-spacing:0px;word-spacing:0px;writing-mode:lr-tb;direction:rtl;text-anchor:middle;fill:#ffffff;stroke:none;stroke-width:31.3337;stroke-dasharray:none;paint-order:markers stroke fill"
       x="809.52637"
       y="-90.261505"
       id="text18"><tspan
         sodipodi:role="line"
         id="tspan18"
         style="font-size:150px;fill:#ffffff;stroke:none;stroke-width:31.3337"
         x="809.52637"
         y="-90.261505">ڇ</tspan></text><text
       xml:space="preserve"
       style="font-size:150px;line-height:1;font-family:'H34 Tulis';-inkscape-font-specification:'H34 Tulis';text-align:center;text-decoration-color:#000000;letter-spacing:0px;word-spacing:0px;writing-mode:lr-tb;direction:rtl;text-anchor:middle;fill:#ffffff;stroke:none;stroke-width:31.3337;stroke-dasharray:none;paint-order:markers stroke fill"
       x="720.76147"
       y="-90.261505"
       id="text19"><tspan
         sodipodi:role="line"
         id="tspan19"
         style="font-size:150px;fill:#ffffff;stroke:none;stroke-width:31.3337"
         x="720.76147"
         y="-90.261505">ج</tspan></text><text
       xml:space="preserve"
       style="font-style:normal;font-variant:normal;font-weight:normal;font-stretch:normal;font-size:12.7px;line-height:1;font-family:'Open Sans';-inkscape-font-specification:'Open Sans';text-align:start;text-decoration-color:#000000;letter-spacing:0px;word-spacing:0px;writing-mode:lr-tb;direction:ltr;text-anchor:start;fill:#ffffff;stroke:none;stroke-width:2;stroke-dasharray:none;paint-order:markers stroke fill"
       x="598.0238"
       y="221.51375"
       id="text10"><tspan
         sodipodi:role="line"
         id="tspan10"
         style="font-style:normal;font-variant:normal;font-weight:normal;font-stretch:normal;font-family:'Open Sans';-inkscape-font-specification:'Open Sans';text-align:start;direction:ltr;text-anchor:start;stroke-width:2"
         x="598.0238"
         y="221.51375">https://github.com/H34Type/Tulis</tspan></text><text
       xml:space="preserve"
       style="font-style:normal;font-variant:normal;font-weight:normal;font-stretch:normal;font-size:12.7px;line-height:1;font-family:'Open Sans';-inkscape-font-specification:'Open Sans';text-align:center;text-decoration-color:#000000;letter-spacing:0px;word-spacing:0px;writing-mode:lr-tb;direction:ltr;text-anchor:middle;fill:#ffffff;stroke:none;stroke-width:2;stroke-dasharray:none;paint-order:markers stroke fill"
       x="697.63318"
       y="26.485817"
       id="text11"><tspan
         sodipodi:role="line"
         id="tspan11"
         style="font-style:normal;font-variant:normal;font-weight:normal;font-stretch:normal;font-family:'Open Sans';-inkscape-font-specification:'Open Sans';text-align:center;direction:ltr;text-anchor:middle;stroke-width:2"
         x="697.63318"
         y="26.485817">Dari satu kepada banyak menggunakan OpenType 'ccmp' dan 'mark'</tspan></text><rect
       style="fill:#000000;stroke-width:0.974;paint-order:markers stroke fill"
       id="rect12"
       width="541.86664"
       height="270.93329"
       x="978.62238"
       y="-14.762792" /><path
       id="path12"
       style="fill:none;stroke:#ffffff;stroke-width:2;stroke-dasharray:none;paint-order:markers stroke fill"
       d="m 1013.2334,35.83466 h 472.6445 m 0,169.73839 h -472.6445"
       sodipodi:nodetypes="cccc" /><text
       xml:space="preserve"
       style="font-style:normal;font-variant:normal;font-weight:normal;font-stretch:normal;font-size:12.7px;line-height:1;font-family:'Open Sans';-inkscape-font-specification:'Open Sans';text-align:start;text-decoration-color:#000000;letter-spacing:0px;word-spacing:0px;writing-mode:lr-tb;direction:ltr;text-anchor:start;fill:#ffffff;stroke:none;stroke-width:2;stroke-dasharray:none;paint-order:markers stroke fill"
       x="1149.8905"
       y="221.51375"
       id="text13"><tspan
         sodipodi:role="line"
         id="tspan13"
         style="font-style:normal;font-variant:normal;font-weight:normal;font-stretch:normal;font-family:'Open Sans';-inkscape-font-specification:'Open Sans';text-align:start;direction:ltr;text-anchor:start;stroke-width:2"
         x="1149.8905"
         y="221.51375">https://github.com/H34Type/Tulis</tspan></text><text
       xml:space="preserve"
       style="font-style:normal;font-variant:normal;font-weight:normal;font-stretch:normal;font-size:12.7px;line-height:1;font-family:'Open Sans';-inkscape-font-specification:'Open Sans';text-align:center;text-decoration-color:#000000;letter-spacing:0px;word-spacing:0px;writing-mode:lr-tb;direction:ltr;text-anchor:middle;fill:#ffffff;stroke:none;stroke-width:2;stroke-dasharray:none;paint-order:markers stroke fill"
       x="1249.4999"
       y="26.485817"
       id="text14"><tspan
         sodipodi:role="line"
         id="tspan14"
         style="font-style:normal;font-variant:normal;font-weight:normal;font-stretch:normal;font-family:'Open Sans';-inkscape-font-specification:'Open Sans';text-align:center;direction:ltr;text-anchor:middle;stroke-width:2"
         x="1249.4999"
         y="26.485817">Titik yang dinamik</tspan></text><text
       xml:space="preserve"
       style="font-size:5.45289px;line-height:1;font-family:'Open Sans';-inkscape-font-specification:'Open Sans';text-align:center;text-decoration-color:#000000;letter-spacing:0px;word-spacing:0px;writing-mode:lr-tb;direction:ltr;text-anchor:middle;fill:#00ff00;stroke:none;stroke-width:0.029082;stroke-dasharray:none;paint-order:markers stroke fill"
       x="498.12714"
       y="131.59834"
       id="text23"><tspan
         sodipodi:role="line"
         id="tspan23"
         style="fill:#00ff00;stroke:none;stroke-width:0.029082"
         x="498.12714"
         y="131.59834">tt_bawah</tspan></text><text
       xml:space="preserve"
       style="font-style:normal;font-variant:normal;font-weight:normal;font-stretch:normal;font-size:9px;line-height:1;font-family:'Open Sans';-inkscape-font-specification:'Open Sans';text-align:center;text-decoration-color:#000000;letter-spacing:0px;word-spacing:0px;writing-mode:lr-tb;direction:ltr;text-anchor:middle;fill:#ffffff;stroke:none;stroke-width:2;stroke-dasharray:none;paint-order:markers stroke fill"
       x="699.78717"
       y="93.560532"
       id="text26"><tspan
         sodipodi:role="line"
         id="tspan26"
         style="font-style:normal;font-variant:normal;font-weight:normal;font-stretch:normal;font-size:9px;font-family:'Open Sans';-inkscape-font-specification:'Open Sans';text-align:center;direction:ltr;text-anchor:middle;stroke-width:2"
         x="699.78717"
         y="93.560532">Ciri OpenType</tspan><tspan
         sodipodi:role="line"
         style="font-style:normal;font-variant:normal;font-weight:normal;font-stretch:normal;font-size:9px;font-family:'Open Sans';-inkscape-font-specification:'Open Sans';text-align:center;direction:ltr;text-anchor:middle;stroke-width:2"
         x="699.78717"
         y="102.56053"
         id="tspan45">'ccmp' &amp; 'mark' dihidupkan</tspan></text><path
       id="path38"
       style="font-size:150px;line-height:1;font-family:'H34 Tulis';-inkscape-font-specification:'H34 Tulis';text-align:center;letter-spacing:0px;word-spacing:0px;direction:rtl;text-anchor:middle;fill:#00ff00;stroke-width:31.3337;paint-order:markers stroke fill"
       d="m 539.92693,135.59816 c -1.02539,1.68457 -2.70996,4.46778 -5.05371,8.34961 4.10156,2.34375 6.81152,3.95508 8.20312,4.76075 -1.02539,1.75781 -2.70996,4.46777 -4.90723,8.12988 5.34668,3.14941 8.42286,4.90722 9.15528,5.34668 1.61133,-2.70996 2.92968,-4.76074 3.88183,-6.22559 l 1.61133,0.87891 1.31836,0.80566 c 4.54102,2.63672 7.10449,4.17481 7.76367,4.54102 2.49024,-4.02832 4.17481,-6.73828 5.05371,-8.05664 l -8.20312,-5.05371 c 2.41699,-3.95508 4.10156,-6.51856 4.90723,-7.83692 l -9.08204,-5.63965 c -0.8789,1.39161 -2.19726,3.58887 -3.95507,6.51856 l -1.53809,-0.87891 z m 9.59472,8.34961 1.31836,0.80567 h 0.0732 c 3.2959,1.90429 5.56641,3.22265 6.81153,3.95508 -0.87891,1.46484 -2.19727,3.51562 -3.88184,6.29882 l -1.46484,-0.8789 -8.20313,-5.05371 c 1.61133,-2.56348 2.85645,-4.61426 3.73535,-6.07911 z" /><path
       id="text27"
       style="font-size:150px;line-height:1;font-family:'H34 Tulis';-inkscape-font-specification:'H34 Tulis';text-align:center;letter-spacing:0px;word-spacing:0px;direction:rtl;text-anchor:middle;fill:#ffffff;stroke-width:17.4671;paint-order:markers stroke fill"
       d="m 550.76175,94.909232 c 0.77575,0 1.42901,-0.244975 1.91896,-0.734923 0.48995,-0.489949 0.73492,-1.184043 0.73492,-2.082283 0,-0.85741 -0.24497,-1.510675 -0.73492,-1.959795 -0.48995,-0.489949 -1.14321,-0.694094 -1.91896,-0.694094 -0.73493,0 -1.34737,0.204145 -1.79649,0.694094 -0.48995,0.44912 -0.73492,1.102385 -0.73492,1.959795 0,0.89824 0.24497,1.592334 0.73492,2.082283 0.44912,0.489948 1.06156,0.734923 1.79649,0.734923 z m 7.83918,2.000624 c 0.77575,0 1.42901,-0.244974 1.91896,-0.734923 0.48995,-0.530778 0.73492,-1.184043 0.73492,-2.000624 0,-0.857411 -0.24497,-1.510676 -0.73492,-2.000625 -0.48995,-0.489949 -1.14321,-0.734923 -1.91896,-0.734923 -0.6941,0 -1.26571,0.244974 -1.75566,0.734923 -0.48994,0.489949 -0.77575,1.143214 -0.77575,2.000625 0,0.775752 0.28581,1.429017 0.77575,1.959795 0.48995,0.489949 1.06156,0.775752 1.75566,0.775752 z m -15.67836,-0.08166 c 0.77575,0 1.42901,-0.244974 1.91896,-0.734924 0.48994,-0.489948 0.73492,-1.143213 0.73492,-1.918965 0,-0.89824 -0.24498,-1.592334 -0.73492,-2.041454 -0.48995,-0.489949 -1.14321,-0.694094 -1.91896,-0.694094 -1.674,0 -2.53141,0.898239 -2.53141,2.735548 0,0.775752 0.24497,1.429017 0.6941,1.918965 0.48994,0.48995 1.10238,0.734924 1.83731,0.734924 z m -5.7569,6.042704 c 1.75564,0 2.65388,-0.89824 2.65388,-2.77638 0,-1.796478 -0.89824,-2.694717 -2.65388,-2.694717 -0.6941,0 -1.30653,0.244974 -1.79648,0.734923 -0.48996,0.449121 -0.73493,1.102384 -0.73493,1.959794 0,0.81658 0.24497,1.51068 0.73493,2.00062 0.48995,0.53078 1.10238,0.77576 1.79648,0.77576 z m 27.27381,0 c 1.75565,0 2.61306,-0.89824 2.61306,-2.73555 0,-0.816579 -0.24497,-1.469847 -0.73492,-1.959795 -0.48995,-0.44912 -1.14322,-0.694094 -1.87814,-0.694094 -0.73492,0 -1.34736,0.244974 -1.83731,0.694094 -0.48995,0.489948 -0.73492,1.143216 -0.73492,1.959795 0,0.85741 0.24497,1.51068 0.73492,2.00063 0.48995,0.48994 1.10239,0.73492 1.83731,0.73492 z m 2.00063,8.16581 c 0.81658,0 1.42901,-0.24498 1.91896,-0.73493 0.48995,-0.48994 0.73493,-1.18404 0.73493,-2.00061 0,-0.85742 -0.24498,-1.51068 -0.77576,-1.9598 -0.48995,-0.48995 -1.14321,-0.69409 -1.87813,-0.69409 -1.71483,0 -2.57224,0.8574 -2.57224,2.65389 0,0.81657 0.24498,1.51067 0.73493,2.00061 0.48994,0.48995 1.10238,0.73493 1.83731,0.73493 z m -31.35673,0 c 0.81658,0 1.51068,-0.24498 2.00062,-0.73493 0.48996,-0.48994 0.73493,-1.18404 0.73493,-2.00061 0,-1.79649 -0.93907,-2.65389 -2.73555,-2.65389 -0.69409,0 -1.30653,0.20414 -1.79648,0.69409 -0.48995,0.44912 -0.73492,1.10238 -0.73492,1.9598 0,0.81657 0.24497,1.51067 0.73492,2.00061 0.48995,0.48995 1.10239,0.73493 1.79648,0.73493 z m 2.04145,8.04332 c 0.81659,0 1.46985,-0.20414 1.9598,-0.69409 0.48995,-0.44912 0.73492,-1.10238 0.73492,-1.9598 0,-0.89824 -0.24497,-1.5515 -0.73492,-2.08228 -0.48995,-0.48995 -1.14321,-0.73492 -1.9598,-0.73492 -0.65326,0 -1.26569,0.2858 -1.75564,0.77575 -0.48996,0.53078 -0.73493,1.22487 -0.73493,2.04145 0,0.81659 0.24497,1.42902 0.73493,1.91897 0.48995,0.48995 1.10238,0.73492 1.75564,0.73492 z m 27.31465,0 c 1.75565,0 2.61306,-0.85741 2.61306,-2.65389 0,-0.89824 -0.24497,-1.5515 -0.73492,-2.08228 -0.48995,-0.48995 -1.14322,-0.73492 -1.87814,-0.73492 -0.73492,0 -1.34736,0.2858 -1.83731,0.77575 -0.48995,0.53078 -0.73492,1.22487 -0.73492,2.04145 0,0.81659 0.24497,1.42902 0.73492,1.91897 0.48995,0.48995 1.10239,0.73492 1.83731,0.73492 z m -21.51691,6.08354 c 1.75564,0 2.65388,-0.93907 2.65388,-2.81721 0,-0.81658 -0.24498,-1.46985 -0.73492,-1.91896 -0.48995,-0.44913 -1.14321,-0.65327 -1.91896,-0.65327 -0.73493,0 -1.34737,0.20414 -1.83731,0.65327 -0.44913,0.44911 -0.6941,1.10238 -0.6941,1.91896 0,0.89824 0.24497,1.59234 0.6941,2.08228 0.48994,0.48995 1.10238,0.73493 1.83731,0.73493 z m 15.67836,0 c 1.79647,0 2.65388,-0.93907 2.65388,-2.81721 0,-0.81658 -0.24497,-1.46985 -0.73492,-1.91896 -0.48995,-0.44913 -1.14321,-0.65327 -1.91896,-0.65327 -0.6941,0 -1.26571,0.20414 -1.75566,0.69409 -0.48994,0.44912 -0.73492,1.10239 -0.73492,1.87814 0,0.89824 0.24498,1.59234 0.73492,2.08228 0.48995,0.48995 1.06156,0.73493 1.75566,0.73493 z m -7.83918,2.00062 c 0.77575,0 1.42901,-0.24498 1.91896,-0.69409 0.48995,-0.48996 0.73492,-1.14322 0.73492,-2.04146 0,-0.85741 -0.24497,-1.51067 -0.73492,-1.95979 -0.48995,-0.48995 -1.14321,-0.6941 -1.91896,-0.6941 -0.73493,0 -1.34737,0.20415 -1.79649,0.6941 -0.48995,0.44912 -0.73492,1.10238 -0.73492,1.95979 0,0.81659 0.24497,1.51068 0.73492,2.00063 0.44912,0.48994 1.06156,0.73492 1.79649,0.73492 z" /><g
       id="g40"
       transform="translate(396.95267,-13.124542)"><path
         style="fill:none;stroke:#00ff00;stroke-width:0.8;stroke-dasharray:none;paint-order:markers stroke fill"
         d="m 149.88421,146.93235 h 3.4451"
         id="path39"
         sodipodi:nodetypes="cc" /><path
         style="fill:none;stroke:#00ff00;stroke-width:0.8;stroke-dasharray:none;paint-order:markers stroke fill"
         d="m 151.60676,145.2098 v 3.4451"
         id="path40"
         sodipodi:nodetypes="cc" /></g><path
       id="path41"
       style="font-size:150px;line-height:1;font-family:'H34 Tulis';-inkscape-font-specification:'H34 Tulis';text-align:center;letter-spacing:0px;word-spacing:0px;direction:rtl;text-anchor:middle;fill:#ffffff;stroke-width:17.4671;paint-order:markers stroke fill"
       d="m 609.91399,94.909232 c 0.77575,0 1.42901,-0.244975 1.91896,-0.734923 0.48995,-0.489949 0.73492,-1.184043 0.73492,-2.082283 0,-0.85741 -0.24497,-1.510675 -0.73492,-1.959795 -0.48995,-0.489949 -1.14321,-0.694094 -1.91896,-0.694094 -0.73493,0 -1.34737,0.204145 -1.79649,0.694094 -0.48995,0.44912 -0.73492,1.102385 -0.73492,1.959795 0,0.89824 0.24497,1.592334 0.73492,2.082283 0.44912,0.489948 1.06156,0.734923 1.79649,0.734923 z m 7.83918,2.000624 c 0.77575,0 1.42901,-0.244974 1.91896,-0.734923 0.48995,-0.530778 0.73492,-1.184043 0.73492,-2.000624 0,-0.857411 -0.24497,-1.510676 -0.73492,-2.000625 -0.48995,-0.489949 -1.14321,-0.734923 -1.91896,-0.734923 -0.6941,0 -1.26571,0.244974 -1.75566,0.734923 -0.48994,0.489949 -0.77575,1.143214 -0.77575,2.000625 0,0.775752 0.28581,1.429017 0.77575,1.959795 0.48995,0.489949 1.06156,0.775752 1.75566,0.775752 z m -15.67836,-0.08166 c 0.77575,0 1.42901,-0.244974 1.91896,-0.734924 0.48994,-0.489948 0.73492,-1.143213 0.73492,-1.918965 0,-0.89824 -0.24498,-1.592334 -0.73492,-2.041454 -0.48995,-0.489949 -1.14321,-0.694094 -1.91896,-0.694094 -1.674,0 -2.53141,0.898239 -2.53141,2.735548 0,0.775752 0.24497,1.429017 0.6941,1.918965 0.48994,0.48995 1.10238,0.734924 1.83731,0.734924 z m -5.7569,6.042704 c 1.75564,0 2.65388,-0.89824 2.65388,-2.77638 0,-1.796478 -0.89824,-2.694717 -2.65388,-2.694717 -0.6941,0 -1.30653,0.244974 -1.79648,0.734923 -0.48996,0.449121 -0.73493,1.102384 -0.73493,1.959794 0,0.81658 0.24497,1.51068 0.73493,2.00062 0.48995,0.53078 1.10238,0.77576 1.79648,0.77576 z m 27.27381,0 c 1.75565,0 2.61306,-0.89824 2.61306,-2.73555 0,-0.816579 -0.24497,-1.469847 -0.73492,-1.959795 -0.48995,-0.44912 -1.14322,-0.694094 -1.87814,-0.694094 -0.73492,0 -1.34736,0.244974 -1.83731,0.694094 -0.48995,0.489948 -0.73492,1.143216 -0.73492,1.959795 0,0.85741 0.24497,1.51068 0.73492,2.00063 0.48995,0.48994 1.10239,0.73492 1.83731,0.73492 z m 2.00063,8.16581 c 0.81658,0 1.42901,-0.24498 1.91896,-0.73493 0.48995,-0.48994 0.73493,-1.18404 0.73493,-2.00061 0,-0.85742 -0.24498,-1.51068 -0.77576,-1.9598 -0.48995,-0.48995 -1.14321,-0.69409 -1.87813,-0.69409 -1.71483,0 -2.57224,0.8574 -2.57224,2.65389 0,0.81657 0.24498,1.51067 0.73493,2.00061 0.48994,0.48995 1.10238,0.73493 1.83731,0.73493 z m -31.35673,0 c 0.81658,0 1.51068,-0.24498 2.00062,-0.73493 0.48996,-0.48994 0.73493,-1.18404 0.73493,-2.00061 0,-1.79649 -0.93907,-2.65389 -2.73555,-2.65389 -0.69409,0 -1.30653,0.20414 -1.79648,0.69409 -0.48995,0.44912 -0.73492,1.10238 -0.73492,1.9598 0,0.81657 0.24497,1.51067 0.73492,2.00061 0.48995,0.48995 1.10239,0.73493 1.79648,0.73493 z m 2.04145,8.04332 c 0.81659,0 1.46985,-0.20414 1.9598,-0.69409 0.48995,-0.44912 0.73492,-1.10238 0.73492,-1.9598 0,-0.89824 -0.24497,-1.5515 -0.73492,-2.08228 -0.48995,-0.48995 -1.14321,-0.73492 -1.9598,-0.73492 -0.65326,0 -1.26569,0.2858 -1.75564,0.77575 -0.48996,0.53078 -0.73493,1.22487 -0.73493,2.04145 0,0.81659 0.24497,1.42902 0.73493,1.91897 0.48995,0.48995 1.10238,0.73492 1.75564,0.73492 z m 27.31465,0 c 1.75565,0 2.61306,-0.85741 2.61306,-2.65389 0,-0.89824 -0.24497,-1.5515 -0.73492,-2.08228 -0.48995,-0.48995 -1.14322,-0.73492 -1.87814,-0.73492 -0.73492,0 -1.34736,0.2858 -1.83731,0.77575 -0.48995,0.53078 -0.73492,1.22487 -0.73492,2.04145 0,0.81659 0.24497,1.42902 0.73492,1.91897 0.48995,0.48995 1.10239,0.73492 1.83731,0.73492 z m -21.51691,6.08354 c 1.75564,0 2.65388,-0.93907 2.65388,-2.81721 0,-0.81658 -0.24498,-1.46985 -0.73492,-1.91896 -0.48995,-0.44913 -1.14321,-0.65327 -1.91896,-0.65327 -0.73493,0 -1.34737,0.20414 -1.83731,0.65327 -0.44913,0.44911 -0.6941,1.10238 -0.6941,1.91896 0,0.89824 0.24497,1.59234 0.6941,2.08228 0.48994,0.48995 1.10238,0.73493 1.83731,0.73493 z m 15.67836,0 c 1.79647,0 2.65388,-0.93907 2.65388,-2.81721 0,-0.81658 -0.24497,-1.46985 -0.73492,-1.91896 -0.48995,-0.44913 -1.14321,-0.65327 -1.91896,-0.65327 -0.6941,0 -1.26571,0.20414 -1.75566,0.69409 -0.48994,0.44912 -0.73492,1.10239 -0.73492,1.87814 0,0.89824 0.24498,1.59234 0.73492,2.08228 0.48995,0.48995 1.06156,0.73493 1.75566,0.73493 z m -7.83918,2.00062 c 0.77575,0 1.42901,-0.24498 1.91896,-0.69409 0.48995,-0.48996 0.73492,-1.14322 0.73492,-2.04146 0,-0.85741 -0.24497,-1.51067 -0.73492,-1.95979 -0.48995,-0.48995 -1.14321,-0.6941 -1.91896,-0.6941 -0.73493,0 -1.34737,0.20415 -1.79649,0.6941 -0.48995,0.44912 -0.73492,1.10238 -0.73492,1.95979 0,0.81659 0.24497,1.51068 0.73492,2.00063 0.44912,0.48994 1.06156,0.73492 1.79649,0.73492 z" /><text
       xml:space="preserve"
       style="font-style:normal;font-variant:normal;font-weight:normal;font-stretch:normal;font-size:10px;line-height:1;font-family:'Open Sans';-inkscape-font-specification:'Open Sans';text-align:center;text-decoration-color:#000000;letter-spacing:0px;word-spacing:0px;writing-mode:lr-tb;direction:ltr;text-anchor:middle;fill:#ffffff;stroke:none;stroke-width:2;stroke-dasharray:none;paint-order:markers stroke fill"
       x="108.40126"
       y="-577.79681"
       id="text41"
       transform="rotate(90)"><tspan
         sodipodi:role="line"
         id="tspan41"
         style="font-style:normal;font-variant:normal;font-weight:normal;font-stretch:normal;font-size:10px;font-family:'Open Sans';-inkscape-font-specification:'Open Sans';text-align:center;direction:ltr;text-anchor:middle;stroke-width:2"
         x="108.40126"
         y="-577.79681">atau</tspan></text><g
       id="g45"
       transform="translate(455.93274,-13.124542)"><path
         style="fill:none;stroke:#00ff00;stroke-width:0.8;stroke-dasharray:none;paint-order:markers stroke fill"
         d="m 149.88421,146.93235 h 3.4451"
         id="path44"
         sodipodi:nodetypes="cc" /><path
         style="fill:none;stroke:#00ff00;stroke-width:0.8;stroke-dasharray:none;paint-order:markers stroke fill"
         d="m 151.60676,145.2098 v 3.4451"
         id="path45"
         sodipodi:nodetypes="cc" /></g></g></svg>
